<?xml version="1.0"?>
<svg xmlns="http://www.w3.org/2000/svg" id="Capa_1" enable-background="new 0 0 512 512" height="512px" viewBox="0 0 512 512" width="512px" class=""><g><g><path d="m497 151h-181c-8.401 0-15 6.599-15 15v300c0 8.401 6.599 15 15 15h181c8.401 0 15-6.599 15-15v-300c0-8.401-6.599-15-15-15zm-76 270h-30c-8.401 0-15-6.599-15-15s6.599-15 15-15h30c8.401 0 15 6.599 15 15s-6.599 15-15 15zm0-180h-30c-8.401 0-15-6.599-15-15s6.599-15 15-15h30c8.401 0 15 6.599 15 15s-6.599 15-15 15z" data-original="#000000" class="active-path" data-old_color="#000000" fill="#E8E8E8"/><path d="m15 331h196v60h-75c-8.291 0-15 6.709-15 15s6.709 15 15 15h135v-30h-30v-60h30v-165c0-24.814 20.186-45 45-45h135v-75c0-8.284-6.716-15-15-15h-421c-8.284 0-15 6.716-15 15v270c0 8.284 6.716 15 15 15z" data-original="#000000" class="active-path" data-old_color="#000000" fill="#E8E8E8"/></g></g> </svg>
