<?xml version="1.0" encoding="utf-8"?>
<!-- Generator: Adobe Illustrator 24.1.1, SVG Export Plug-In . SVG Version: 6.00 Build 0)  -->
<svg version="1.1"
	 id="svg2" xmlns:cc="http://creativecommons.org/ns#" xmlns:dc="http://purl.org/dc/elements/1.1/" xmlns:inkscape="http://www.inkscape.org/namespaces/inkscape" xmlns:rdf="http://www.w3.org/1999/02/22-rdf-syntax-ns#" xmlns:sodipodi="http://sodipodi.sourceforge.net/DTD/sodipodi-0.dtd" xmlns:svg="http://www.w3.org/2000/svg"
	 xmlns="http://www.w3.org/2000/svg" xmlns:xlink="http://www.w3.org/1999/xlink" x="0px" y="0px" viewBox="195 148.3 558 129.6"
	 style="enable-background:new 195 148.3 558 129.6;" xml:space="preserve">
<style type="text/css">
	.st0{fill:#E0FD0E;}
	.st1{fill:#FFFFFF;}
</style>
<g>
	<path id="path2409_1_" d="M416.4,275.6h23.5v-94.9h-23.5V275.6z"/>
	<path id="path2411_1_" d="M710.3,277.8c-26.2,0-42-13.5-42.9-32.6h24.7c0,6,3.7,14.7,19.7,15c10.7,0,15.7-6.3,15.7-11
		c-0.6-7.5-10-8.1-20-9.7c-10-1.6-18.6-3.4-24.7-6.6c-7.9-4.1-13.2-12.8-13.2-22.8c0-17,14.7-30.4,39.2-30.4
		c23.8,0,38.8,12.5,40.4,31h-23.9c-0.2-5-1.2-12.9-15.2-12.9c-9.5,0-15.8,1.9-16.3,8.5c0,9.7,19.7,9.1,35.1,13.1
		c14.7,3.7,24.1,12.9,24.1,25.7C753,268.8,733.9,277.8,710.3,277.8"/>
	<path id="path2413_1_" d="M737.6,152.1c5.7,0,10.8,4.8,10.8,10.6c0,5.7-5.1,10.4-10.8,10.4c-5.7,0-10.3-4.8-10.3-10.4
		C727.3,156.9,732,152.1,737.6,152.1z M737.6,150.5c-6.6,0-11.9,5.4-11.9,12.2c0,6.6,5.3,12,11.9,12c6.7,0,12.4-5.4,12.4-12
		C750,156,744.4,150.5,737.6,150.5z M740.5,163.1c1.2-0.4,2-1.7,2-3.4c0-2.6-2-3.7-4.5-3.7h-4.6v13.3h2.1v-5.4h2.9
		c1.6,0,2,1.3,2,3.8c0,0.7,0,1.2,0.4,1.6h2c-0.4-0.9-0.4-2-0.4-3.7C742.6,163.4,741.4,163.1,740.5,163.1z M735.6,158h2.9
		c1.2,0,2,0.9,2,2.1c0,1.3-1.7,1.7-2.9,1.7h-2V158"/>
	<path id="path2415_2_" d="M439.8,148.4v23.5h-23.5v-23.6"/>
	<path id="path2417_1_" d="M353.3,277.8c-27.3,0-49.5-22.3-49.5-49.3c0-27.3,22.2-48.8,49.5-48.8c10.3,0,19.7,2.8,27.9,8.4v-39.8
		h23.5v127.2h-23.5v-6.3C373.1,274.6,363.7,277.8,353.3,277.8z M326.4,228.6c0,14.7,12.6,27,27.6,27c14.7,0,27.3-12.3,27.3-27
		c0-14.7-12.6-27.3-27.3-27.3C339,201.3,326.4,213.9,326.4,228.6"/>
	<path id="path2419_1_" d="M526.7,148.4h23.1v127.2h-23.1v-6.3c-7.9,5.3-17.6,8.5-28.3,8.5c-27,0-49.2-22.3-49.2-49.3
		c0-27.3,22.2-48.8,49.2-48.8c10.7,0,20,2.8,28.3,8.4V148.4z M472.1,228.6c0,14.7,12.6,27,27,27c15,0,27.6-12.3,27.6-27
		c0-14.7-12.6-27.3-27.6-27.3C484.7,201.3,472.1,213.9,472.1,228.6"/>
	<path id="path2421_1_" d="M606.9,277.8c-26.9,0-49.2-22.3-49.2-49.3c0-27.3,22.3-48.8,49.2-48.8c10.3,0,20,2.8,27.9,8.4v-7.6h23.5
		v95h-23.5v-6.3C627,274.6,617.6,277.8,606.9,277.8z M580.6,228.6c0,14.7,12.6,27,27.3,27s27-12.3,27-27c0-14.7-12.3-27.3-27-27.3
		S580.6,213.9,580.6,228.6"/>
	<path id="path2423_1_" d="M217.6,228.6c0,14.7,12.6,27,27.3,27c15,0,27.6-12.3,27.6-27c0-14.7-12.6-27.3-27.6-27.3
		C230.2,201.3,217.6,213.9,217.6,228.6z M244.3,277.8c-27,0-49.3-22.3-49.3-49.3c0-27.3,22.3-48.8,49.3-48.8c10.3,0,20,2.8,28.3,8.4
		v-7.6h23.1v95h-23.1v-6.3C264.6,274.6,254.9,277.8,244.3,277.8"/>
</g>
</svg>
