<?xml version="1.0" encoding="utf-8"?>
<!-- Generator: Adobe Illustrator 24.1.1, SVG Export Plug-In . SVG Version: 6.00 Build 0)  -->
<svg version="1.1"
	 id="svg2" xmlns:cc="http://creativecommons.org/ns#" xmlns:dc="http://purl.org/dc/elements/1.1/" xmlns:inkscape="http://www.inkscape.org/namespaces/inkscape" xmlns:rdf="http://www.w3.org/1999/02/22-rdf-syntax-ns#" xmlns:sodipodi="http://sodipodi.sourceforge.net/DTD/sodipodi-0.dtd" xmlns:svg="http://www.w3.org/2000/svg"
	 xmlns="http://www.w3.org/2000/svg" xmlns:xlink="http://www.w3.org/1999/xlink" x="0px" y="0px" viewBox="0 0 558 129.6"
	 style="enable-background:new 0 0 558 129.6;" xml:space="preserve">
<style type="text/css">
	.st0{fill:#FFFFFF;}
</style>
<metadata><?xpacket begin="﻿" id="W5M0MpCehiHzreSzNTczkc9d"?>
<x:xmpmeta xmlns:x="adobe:ns:meta/" x:xmptk="Adobe XMP Core 5.6-c148 79.164050, 2019/10/01-18:03:16        ">
   <rdf:RDF xmlns:rdf="http://www.w3.org/1999/02/22-rdf-syntax-ns#">
      <rdf:Description rdf:about=""
            xmlns:xmp="http://ns.adobe.com/xap/1.0/"
            xmlns:xmpGImg="http://ns.adobe.com/xap/1.0/g/img/"
            xmlns:xmpTPg="http://ns.adobe.com/xap/1.0/t/pg/"
            xmlns:stDim="http://ns.adobe.com/xap/1.0/sType/Dimensions#"
            xmlns:xmpG="http://ns.adobe.com/xap/1.0/g/"
            xmlns:dc="http://purl.org/dc/elements/1.1/">
         <xmp:CreatorTool>Adobe Illustrator 24.1 (Windows)</xmp:CreatorTool>
         <xmp:CreateDate>2020-07-03T12:48:36+03:00</xmp:CreateDate>
         <xmp:Thumbnails>
            <rdf:Alt>
               <rdf:li rdf:parseType="Resource">
                  <xmpGImg:width>256</xmpGImg:width>
                  <xmpGImg:height>60</xmpGImg:height>
                  <xmpGImg:format>JPEG</xmpGImg:format>
                  <xmpGImg:image>/9j/4AAQSkZJRgABAgEASABIAAD/7QAsUGhvdG9zaG9wIDMuMAA4QklNA+0AAAAAABAASAAAAAEA&#xA;AQBIAAAAAQAB/+4ADkFkb2JlAGTAAAAAAf/bAIQABgQEBAUEBgUFBgkGBQYJCwgGBggLDAoKCwoK&#xA;DBAMDAwMDAwQDA4PEA8ODBMTFBQTExwbGxscHx8fHx8fHx8fHwEHBwcNDA0YEBAYGhURFRofHx8f&#xA;Hx8fHx8fHx8fHx8fHx8fHx8fHx8fHx8fHx8fHx8fHx8fHx8fHx8fHx8fHx8f/8AAEQgAPAEAAwER&#xA;AAIRAQMRAf/EAaIAAAAHAQEBAQEAAAAAAAAAAAQFAwIGAQAHCAkKCwEAAgIDAQEBAQEAAAAAAAAA&#xA;AQACAwQFBgcICQoLEAACAQMDAgQCBgcDBAIGAnMBAgMRBAAFIRIxQVEGE2EicYEUMpGhBxWxQiPB&#xA;UtHhMxZi8CRygvElQzRTkqKyY3PCNUQnk6OzNhdUZHTD0uIIJoMJChgZhJRFRqS0VtNVKBry4/PE&#xA;1OT0ZXWFlaW1xdXl9WZ2hpamtsbW5vY3R1dnd4eXp7fH1+f3OEhYaHiImKi4yNjo+Ck5SVlpeYmZ&#xA;qbnJ2en5KjpKWmp6ipqqusra6voRAAICAQIDBQUEBQYECAMDbQEAAhEDBCESMUEFURNhIgZxgZEy&#xA;obHwFMHR4SNCFVJicvEzJDRDghaSUyWiY7LCB3PSNeJEgxdUkwgJChgZJjZFGidkdFU38qOzwygp&#xA;0+PzhJSktMTU5PRldYWVpbXF1eX1RlZmdoaWprbG1ub2R1dnd4eXp7fH1+f3OEhYaHiImKi4yNjo&#xA;+DlJWWl5iZmpucnZ6fkqOkpaanqKmqq6ytrq+v/aAAwDAQACEQMRAD8A9U4q7FXYq7FXYq7FXYq7&#xA;FXYq7FXYq7FXYq7FXYq7FXYq7FXYq7FXYq7FXYq7FXYq7FXYq7FXYq7FXYq7FXYq7FXYq7FXYq7F&#xA;XYq7FXYq7FXYq7FXYq7FXYq7FXYq7FXYq7FXYq7FXYq7FXYq7FXYq7FXYq7FXYq7FXYq7FXYq7FX&#xA;Yq7FXYq7FXYq7FXYq7FXYq7FXYq7FXYq7FXYq7FXYq7FXYq7FXYq7FXYq7FXYq7FXYq7FXYq7FXY&#xA;q7FXYq7FXYq7FXYq7FXYq7FXYq7FXYq7FXYq7FXYq7FXYq7FXYq7FXYq7FXYq7FXYq7FXYq7FXYq&#xA;7FXYq7FXYq7FXYq7FXYq7FXYq7FXYq7FXYq7FXYq7FXYq7FXYq7FXYq7FXYq7FXYq7FXYq7FXYq7&#xA;FXYq7FXYq7FXYq7FXYq7FXYq7FXYq7FXYq7FXYq7FXYq7FXYq7FXYq7FXYq7FXYq7FXYq7FXYq7F&#xA;XYq7FXYq7FXYq7FXYq7FXYq7FXYq7FXYq7FXYq7FXYq7FXYq7FXYq7FXYq7FXYq7FXYq7FXYq7FX&#xA;Yq7FXYq7FXYq7FXYq7FXYq7FXYq7FXYq7FXYq7FXYq7FXYq7FXYq7FXYq7FXYq7FXYq7FXYq7FXY&#xA;q7FXYq7FXYq7FX//2Q==</xmpGImg:image>
               </rdf:li>
            </rdf:Alt>
         </xmp:Thumbnails>
         <xmpTPg:MaxPageSize rdf:parseType="Resource">
            <stDim:w>558.000000</stDim:w>
            <stDim:h>129.600006</stDim:h>
            <stDim:unit>Pixels</stDim:unit>
         </xmpTPg:MaxPageSize>
         <xmpTPg:NPages>1</xmpTPg:NPages>
         <xmpTPg:HasVisibleTransparency>False</xmpTPg:HasVisibleTransparency>
         <xmpTPg:HasVisibleOverprint>False</xmpTPg:HasVisibleOverprint>
         <xmpTPg:SwatchGroups>
            <rdf:Seq>
               <rdf:li rdf:parseType="Resource">
                  <xmpG:groupName>Default Swatch Group</xmpG:groupName>
                  <xmpG:groupType>0</xmpG:groupType>
               </rdf:li>
            </rdf:Seq>
         </xmpTPg:SwatchGroups>
         <dc:format>image/svg+xml</dc:format>
      </rdf:Description>
   </rdf:RDF>
</x:xmpmeta>
                                                                                                    
                                                                                                    
                                                                                                    
                                                                                                    
                                                                                                    
                                                                                                    
                                                                                                    
                                                                                                    
                                                                                                    
                                                                                                    
                                                                                                    
                                                                                                    
                                                                                                    
                                                                                                    
                                                                                                    
                                                                                                    
                                                                                                    
                                                                                                    
                                                                                                    
                                                                                                    
                           
<?xpacket end="w"?>
	</metadata>
<g>
	<path id="path2409_1_" class="st0" d="M221.4,127.3h23.5V32.4h-23.5V127.3z"/>
	<path id="path2411_1_" class="st0" d="M515.3,129.5c-26.2,0-42-13.5-42.9-32.6h24.7c0,6,3.7,14.7,19.7,15c10.7,0,15.7-6.3,15.7-11
		c-0.6-7.5-10-8.1-20-9.7c-10-1.6-18.6-3.4-24.7-6.6c-7.9-4.1-13.2-12.8-13.2-22.8c0-17,14.7-30.4,39.2-30.4
		c23.8,0,38.8,12.5,40.4,31h-23.9c-0.2-5-1.2-12.9-15.2-12.9c-9.5,0-15.8,1.9-16.3,8.5c0,9.7,19.7,9.1,35.1,13.1
		C548.6,74.8,558,84,558,96.8C558,120.5,538.9,129.5,515.3,129.5"/>
	<path id="path2413_1_" class="st0" d="M542.6,3.8c5.7,0,10.8,4.8,10.8,10.6c0,5.7-5.1,10.4-10.8,10.4s-10.3-4.8-10.3-10.4
		C532.3,8.6,537,3.8,542.6,3.8z M542.6,2.2c-6.6,0-11.9,5.4-11.9,12.2c0,6.6,5.3,12,11.9,12c6.7,0,12.4-5.4,12.4-12
		C555,7.7,549.4,2.2,542.6,2.2z M545.5,14.8c1.2-0.4,2-1.7,2-3.4c0-2.6-2-3.7-4.5-3.7h-4.6V21h2.1v-5.4h2.9c1.6,0,2,1.3,2,3.8
		c0,0.7,0,1.2,0.4,1.6h2c-0.4-0.9-0.4-2-0.4-3.7C547.6,15.1,546.4,14.8,545.5,14.8z M540.6,9.7h2.9c1.2,0,2,0.9,2,2.1
		c0,1.3-1.7,1.7-2.9,1.7h-2V9.7"/>
	<path id="path2415_2_" class="st0" d="M244.8,0.1v23.5h-23.5V0"/>
	<path id="path2417_1_" class="st0" d="M158.3,129.5c-27.3,0-49.5-22.3-49.5-49.3c0-27.3,22.2-48.8,49.5-48.8
		c10.3,0,19.7,2.8,27.9,8.4V0h23.5v127.2h-23.5v-6.3C178.1,126.3,168.7,129.5,158.3,129.5z M131.4,80.3c0,14.7,12.6,27,27.6,27
		c14.7,0,27.3-12.3,27.3-27S173.7,53,159,53C144,53,131.4,65.6,131.4,80.3"/>
	<path id="path2419_1_" class="st0" d="M331.7,0.1h23.1v127.2h-23.1V121c-7.9,5.3-17.6,8.5-28.3,8.5c-27,0-49.2-22.3-49.2-49.3
		c0-27.3,22.2-48.8,49.2-48.8c10.7,0,20,2.8,28.3,8.4V0.1z M277.1,80.3c0,14.7,12.6,27,27,27c15,0,27.6-12.3,27.6-27
		S319.1,53,304.1,53C289.7,53,277.1,65.6,277.1,80.3"/>
	<path id="path2421_1_" class="st0" d="M411.9,129.5c-26.9,0-49.2-22.3-49.2-49.3c0-27.3,22.3-48.8,49.2-48.8
		c10.3,0,20,2.8,27.9,8.4v-7.6h23.5v95h-23.5v-6.3C432,126.3,422.6,129.5,411.9,129.5z M385.6,80.3c0,14.7,12.6,27,27.3,27
		s27-12.3,27-27S427.6,53,412.9,53S385.6,65.6,385.6,80.3"/>
	<path id="path2423_1_" class="st0" d="M22.6,80.3c0,14.7,12.6,27,27.3,27c15,0,27.6-12.3,27.6-27S64.9,53,49.9,53
		C35.2,53,22.6,65.6,22.6,80.3z M49.3,129.5c-27,0-49.3-22.3-49.3-49.3c0-27.3,22.3-48.8,49.3-48.8c10.3,0,20,2.8,28.3,8.4v-7.6
		h23.1v95H77.6v-6.3C69.6,126.3,59.9,129.5,49.3,129.5"/>
</g>
</svg>
